<svg xmlns="http://www.w3.org/2000/svg" width="640" height="480" viewBox="0 0 169.33333 127" id="svg8"><g id="layer1" transform="translate(0 -170)"><path id="orderArea" fill="#00003a" stroke-width="0" stroke-miterlimit="1" d="M0 170h169.333v20.894H0z"/><path id="counterArea" fill="#075100" stroke-width="0" stroke-miterlimit="1" d="M57.294 190.836h74.576v106.106H57.294z"/><path id="ingredientsArea" fill="#082f04" stroke="#000" stroke-width=".822" stroke-miterlimit="1" stroke-dasharray="3.28644754,1.64322376" d="M132.281 190.908h36.642v74.273h-36.642z"/><path id="stoveArea" fill="#1d1d1d" stroke-width=".896" stroke-miterlimit="1" stroke-dasharray="3.58373476,1.79186739" d="M-.051 219.883h28.747v77.139H-.051z"/><circle id="stove2" cx="14.86" cy="255.974" r="12.027" fill="#010000" stroke-width=".794" stroke-miterlimit="1" stroke-dasharray="3.17499996,1.58749998"/><circle id="stove3" cx="13.802" cy="280.028" r="12.027" fill="#010000" stroke-width=".794" stroke-miterlimit="1" stroke-dasharray="3.17499999,1.5875"/><circle id="stove1" cx="14.331" cy="231.92" r="12.027" fill="#010000" stroke-width=".794" stroke-miterlimit="1" stroke-dasharray="3.17499999,1.5875"/><path id="warmArea" fill="#1d1d1d" stroke="#000" stroke-width="1.007" stroke-miterlimit="1" stroke-dasharray="4.02645955,2.01322977" d="M.079 191.031h56.908v28.694H.079z"/><path id="ovenArea" fill="#1d1d1d" stroke-width=".896" stroke-miterlimit="1" stroke-dasharray="3.5837348,1.7918674" d="M28.696 219.883h28.747v77.139H28.696z"/><path d="M28.696 291.126h28.598" id="path4566" fill="none" fill-rule="evenodd" stroke="#000" stroke-width="1.196"/><path d="M28.696 282.862h28.598" id="path4566-9" fill="none" fill-rule="evenodd" stroke="#000" stroke-width="1.196"/><path d="M28.696 274.678h28.598" id="path4566-2" fill="none" fill-rule="evenodd" stroke="#000" stroke-width="1.196"/><path d="M28.696 266.414h28.598" id="path4566-9-2" fill="none" fill-rule="evenodd" stroke="#000" stroke-width="1.196"/><path d="M28.696 258.452h28.598" id="path4566-2-8" fill="none" fill-rule="evenodd" stroke="#000" stroke-width="1.196"/><path d="M28.696 250.189h28.598" id="path4566-9-2-2" fill="none" fill-rule="evenodd" stroke="#000" stroke-width="1.196"/><path d="M28.696 243.292h28.598" id="path4566-9-2-2-8" fill="none" fill-rule="evenodd" stroke="#000" stroke-width="1.196"/><path d="M28.696 234.198h28.598" id="path4566-9-2-2-8-6" fill="none" fill-rule="evenodd" stroke="#000" stroke-width="1.196"/><path d="M28.696 226.714h28.598" id="path4566-9-2-2-8-6-5" fill="none" fill-rule="evenodd" stroke="#000" stroke-width="1.196"/><path id="rect4508" fill="#ff0023" stroke="#bcb800" stroke-width=".591" d="M132.166 265.887h37.655v31.751h-37.655z"/></g></svg>