<svg xmlns="http://www.w3.org/2000/svg" width="580" height="127"><defs><filter id="a" y="-.25" height="1.5" color-interpolation-filters="sRGB"><feGaussianBlur stdDeviation="5" result="result6"/><feComposite in2="result6" result="result8" in="SourceGraphic" operator="atop"/><feComposite in2="SourceAlpha" result="result9" in="result8"/><feColorMatrix values="1 0 0 0 0 0 1 0 0 0 0 0 1 0 0 0 0 0 1 0" result="result10"/><feBlend in2="result6" in="result10"/></filter><filter id="b" y="-.25" height="1.5" color-interpolation-filters="sRGB"><feGaussianBlur stdDeviation="5" result="result6"/><feComposite in2="result6" result="result8" in="SourceGraphic" operator="atop"/><feComposite in2="SourceAlpha" result="result9" in="result8"/><feColorMatrix values="1 0 0 0 0 0 1 0 0 0 0 0 1 0 0 0 0 0 1 0" result="result10"/><feBlend in2="result6" in="result10"/></filter><filter id="c" y="-.25" height="1.5" color-interpolation-filters="sRGB"><feGaussianBlur stdDeviation="5" result="result6"/><feComposite in2="result6" result="result8" in="SourceGraphic" operator="atop"/><feComposite in2="SourceAlpha" result="result9" in="result8"/><feColorMatrix values="1 0 0 0 0 0 1 0 0 0 0 0 1 0 0 0 0 0 1 0" result="result10"/><feBlend in2="result6" in="result10"/></filter><filter id="d" y="-.25" height="1.5" color-interpolation-filters="sRGB"><feGaussianBlur stdDeviation="5" result="result6"/><feComposite in2="result6" result="result8" in="SourceGraphic" operator="atop"/><feComposite in2="SourceAlpha" result="result9" in="result8"/><feColorMatrix values="1 0 0 0 0 0 1 0 0 0 0 0 1 0 0 0 0 0 1 0" result="result10"/><feBlend in2="result6" in="result10"/></filter><filter id="e" y="-.25" height="1.5" color-interpolation-filters="sRGB"><feGaussianBlur stdDeviation="5" result="result6"/><feComposite in2="result6" result="result8" in="SourceGraphic" operator="atop"/><feComposite in2="SourceAlpha" result="result9" in="result8"/><feColorMatrix values="1 0 0 0 0 0 1 0 0 0 0 0 1 0 0 0 0 0 1 0" result="result10"/><feBlend in2="result6" in="result10"/></filter><filter id="f" y="-.25" height="1.5" color-interpolation-filters="sRGB"><feGaussianBlur stdDeviation="5" result="result6"/><feComposite in2="result6" result="result8" in="SourceGraphic" operator="atop"/><feComposite in2="SourceAlpha" result="result9" in="result8"/><feColorMatrix values="1 0 0 0 0 0 1 0 0 0 0 0 1 0 0 0 0 0 1 0" result="result10"/><feBlend in2="result6" in="result10"/></filter><filter id="g" y="-.25" height="1.5" color-interpolation-filters="sRGB"><feGaussianBlur stdDeviation="5" result="result6"/><feComposite in2="result6" result="result8" in="SourceGraphic" operator="atop"/><feComposite in2="SourceAlpha" result="result9" in="result8"/><feColorMatrix values="1 0 0 0 0 0 1 0 0 0 0 0 1 0 0 0 0 0 1 0" result="result10"/><feBlend in2="result6" in="result10"/></filter><filter id="h" y="-.25" height="1.5" color-interpolation-filters="sRGB"><feGaussianBlur stdDeviation="5" result="result6"/><feComposite in2="result6" result="result8" in="SourceGraphic" operator="atop"/><feComposite in2="SourceAlpha" result="result9" in="result8"/><feColorMatrix values="1 0 0 0 0 0 1 0 0 0 0 0 1 0 0 0 0 0 1 0" result="result10"/><feBlend in2="result6" in="result10"/></filter><filter id="i" y="-.25" height="1.5" color-interpolation-filters="sRGB"><feGaussianBlur stdDeviation="5" result="result6"/><feComposite in2="result6" result="result8" in="SourceGraphic" operator="atop"/><feComposite in2="SourceAlpha" result="result9" in="result8"/><feColorMatrix values="1 0 0 0 0 0 1 0 0 0 0 0 1 0 0 0 0 0 1 0" result="result10"/><feBlend in2="result6" in="result10"/></filter><filter id="j" y="-.25" height="1.5" color-interpolation-filters="sRGB"><feGaussianBlur stdDeviation="5" result="result6"/><feComposite in2="result6" result="result8" in="SourceGraphic" operator="atop"/><feComposite in2="SourceAlpha" result="result9" in="result8"/><feColorMatrix values="1 0 0 0 0 0 1 0 0 0 0 0 1 0 0 0 0 0 1 0" result="result10"/><feBlend in2="result6" in="result10"/></filter><filter id="k" y="-.25" height="1.5" color-interpolation-filters="sRGB"><feGaussianBlur stdDeviation="5" result="result6"/><feComposite in2="result6" result="result8" in="SourceGraphic" operator="atop"/><feComposite in2="SourceAlpha" result="result9" in="result8"/><feColorMatrix values="1 0 0 0 0 0 1 0 0 0 0 0 1 0 0 0 0 0 1 0" result="result10"/><feBlend in2="result6" in="result10"/></filter><filter id="l" y="-.25" height="1.5" color-interpolation-filters="sRGB"><feGaussianBlur stdDeviation="5" result="result6"/><feComposite in2="result6" result="result8" in="SourceGraphic" operator="atop"/><feComposite in2="SourceAlpha" result="result9" in="result8"/><feColorMatrix values="1 0 0 0 0 0 1 0 0 0 0 0 1 0 0 0 0 0 1 0" result="result10"/><feBlend in2="result6" in="result10"/></filter><filter id="m" y="-.25" height="1.5" color-interpolation-filters="sRGB"><feGaussianBlur stdDeviation="5" result="result6"/><feComposite in2="result6" result="result8" in="SourceGraphic" operator="atop"/><feComposite in2="SourceAlpha" result="result9" in="result8"/><feColorMatrix values="1 0 0 0 0 0 1 0 0 0 0 0 1 0 0 0 0 0 1 0" result="result10"/><feBlend in2="result6" in="result10"/></filter><filter id="n" y="-.25" height="1.5" color-interpolation-filters="sRGB"><feGaussianBlur stdDeviation="5" result="result6"/><feComposite in2="result6" result="result8" in="SourceGraphic" operator="atop"/><feComposite in2="SourceAlpha" result="result9" in="result8"/><feColorMatrix values="1 0 0 0 0 0 1 0 0 0 0 0 1 0 0 0 0 0 1 0" result="result10"/><feBlend in2="result6" in="result10"/></filter><filter id="o" y="-.25" height="1.5" color-interpolation-filters="sRGB"><feGaussianBlur stdDeviation="5" result="result6"/><feComposite in2="result6" result="result8" in="SourceGraphic" operator="atop"/><feComposite in2="SourceAlpha" result="result9" in="result8"/><feColorMatrix values="1 0 0 0 0 0 1 0 0 0 0 0 1 0 0 0 0 0 1 0" result="result10"/><feBlend in2="result6" in="result10"/></filter><filter id="p" y="-.25" height="1.5" color-interpolation-filters="sRGB"><feGaussianBlur stdDeviation="5" result="result6"/><feComposite in2="result6" result="result8" in="SourceGraphic" operator="atop"/><feComposite in2="SourceAlpha" result="result9" in="result8"/><feColorMatrix values="1 0 0 0 0 0 1 0 0 0 0 0 1 0 0 0 0 0 1 0" result="result10"/><feBlend in2="result6" in="result10"/></filter><filter id="q" y="-.25" height="1.5" color-interpolation-filters="sRGB"><feGaussianBlur stdDeviation="5" result="result6"/><feComposite in2="result6" result="result8" in="SourceGraphic" operator="atop"/><feComposite in2="SourceAlpha" result="result9" in="result8"/><feColorMatrix values="1 0 0 0 0 0 1 0 0 0 0 0 1 0 0 0 0 0 1 0" result="result10"/><feBlend in2="result6" in="result10"/></filter></defs><g fill="none" stroke="#000"><path d="M10.656 939.661l16.313 97.395 9.115-56.614 42.22 36.463-69.567-81.562" filter="url(#a)" transform="translate(0 -925.362)"/><path d="M56.235 975.644l38.862 49.897 10.075-33.584 21.11 31.185-21.59-56.134-12.954 27.827z" filter="url(#b)" transform="translate(0 -925.362)"/><path d="M117.166 970.847l30.226-14.394-13.433 20.63 26.387 37.903z" filter="url(#c)" transform="translate(0 -925.362)"/><path d="M144.034 979.962l24.468-17.751 19.671 17.272-13.433 66.209-28.787-34.544 26.867 16.312-6.716-24.948z" filter="url(#d)" transform="translate(0 -925.362)"/><path d="M192.011 1003.951l7.197-40.78 4.318 26.387 24.469-17.752z" filter="url(#e)" transform="translate(0 -925.362)"/><path d="M214.081 1001.072l29.266-33.584-12.474 25.908 35.504-15.353-54.215 68.608-4.318-31.185 8.156 15.353 23.989-32.625z" filter="url(#f)" transform="translate(0 -925.362)"/><path d="M265.417 944.459l2.879 25.428 10.075-7.197z" filter="url(#g)" transform="translate(0 -925.362)"/><path d="M292.285 971.806l-19.191 18.232 19.19.96-27.347 25.907 44.62-28.786-20.63-4.318z" filter="url(#h)" transform="translate(0 -925.362)"/><path transform="translate(336.883 -79.09)" d="M11.994 120.473l-1.919 62.37 22.07-40.3 10.555 40.3 33.584-85.879L45.1 149.26l-11.994-18.712-15.833 25.908z" filter="url(#i)"/><path d="M215.4 1018.779l-19.52-27.37-11.627 21.607 16.67 27.853 13.6-11.525-19.303-12.006z" stroke-width=".957" filter="url(#j)" transform="translate(336.883 -940.452)"/><path transform="translate(336.883 -79.09)" d="M78.203 127.19l26.868 55.654 20.15-23.989-23.029-2.399z" filter="url(#k)"/><path transform="translate(336.883 -79.09)" d="M144.412 150.699l-18.71 14.393 23.988 5.757-21.59 12.954 31.186-11.034-17.752-11.035 7.196-13.434z" filter="url(#l)"/><path transform="translate(336.883 -79.09)" d="M170.32 180.445l-14.873-24.948 17.752 23.029z" filter="url(#m)"/><path transform="translate(336.883 -79.09)" d="M149.69 140.624l8.636 8.156-8.156 3.358z" filter="url(#n)"/><path transform="translate(336.883 -79.09)" d="M166.002 126.71l1.68 14.153-5.038 8.397 8.156-1.92 9.116 28.307 8.636-1.919-11.995-25.428 7.677-5.278-8.156-2.398z" filter="url(#p)"/><path d="M91.378 1027.655l-19.52-27.37-11.627 21.607 16.67 27.853 13.6-11.525-19.303-12.006z" stroke-width=".957" filter="url(#q)" transform="translate(336.883 -940.452)"/></g></svg>
