<svg xmlns="http://www.w3.org/2000/svg" width="600" height="400" viewBox="0 0 600.00005 399.99998" id="svg2"><g id="layer1" transform="translate(0 -652.362)"><g id="g4180" transform="matrix(.68974 0 0 .83515 58.212 103.18)" fill-rule="evenodd" stroke="#000"><path id="path4142" d="M146.96 678.376l26.505 90.693 40.452 4.79z" fill="red"/><path id="path4136" d="M132.05 677.51L14.715 790.131l115.417 2.662-80.74-14.99z" fill="red"/><path id="path4138" d="M60.966 772.131l77.248-93.466 4.911 112.775z" fill="red"/><path id="path4140" d="M141.64 677.975l7.562 114.393 169.845-.445-154.721-18.948z" fill="red"/><path id="path4144" d="M151.672 677.658l71.011 98.134-22.698-50.237 118.79 63.24-126.641-78.77 6.617-23.642z" fill="#fd0e0e"/><path id="path4146" d="M131.59 699.026l3.314 80.545-57.011-13.258z" fill="#fff"/><path id="path4148" d="M157.775 701.346l43.09 64.304-21.877-2.984z" fill="#fff"/><path id="path4150" d="M161.752 683.779l28.837 7.955-5.634 21.545z" fill="#fff"/></g><g id="g4190" transform="matrix(1.00023 0 0 .87626 -58.578 68.853)" fill-rule="evenodd" stroke="#000"><path id="path4152" d="M430.235 687.757l-51.045 20.219 25.522 51.044-63.64 34.472L413 764.655l-21.545-52.039z" fill="#0fff00"/><path id="path4154" d="M398.746 716.594l28.506 74.91-1.326-37.787 17.567 37.124-9.28-104.742-11.933 56.017z" fill="#2f0"/><path id="path4156" d="M448.465 791.503l-5.303-106.73 55.022 106.73-40.77-59.33z" fill="#08ff00"/><path id="path4158" d="M501.167 790.51l-49.719-104.742 43.753 13.59-14.253 17.236z" fill="#13ff00"/><path id="path4160" d="M489.235 716.925l19.224 72.921 34.14-.663-26.848-23.202 18.894-31.157-29.832.331 3.315-39.112z" fill="#00fb13"/><path id="path4162" d="M447.802 702.01l11.27 21.544-8.95 2.32z" fill="#fff"/><path id="path4164" d="M461.392 694.054l9.612 19.556 13.259-12.595z" fill="#fff"/></g><g id="g4206" transform="matrix(1.41922 0 0 1.17403 11.308 -168.851)" fill-rule="evenodd" stroke="#000"><path id="path4170" d="M128.606 830.284l64.304-34.472-25.854 24.528-3.978 65.63-6.629-60.326z" fill="#001eff"/><g id="g4199"><path d="M147.831 811.722l-44.416 14.585 29.832 31.157-43.753 31.157 62.315-25.19-30.495-33.81z" id="path4166" fill="#1300ff"/><path d="M170.37 884.644l3.315-64.966 29.168 63.64-23.865-32.483z" id="path4172" fill="#0004ff"/><path d="M228.707 797.138L181.64 820.34l46.404 63.64-29.168-59z" id="path4174" fill="#001cff"/><path d="M207.494 822.992l29.831 60.989-3.314-24.528 38.449 23.865-37.787-34.472 23.866-19.225-32.483 13.259z" id="path4176" fill="#000cff"/><path d="M176.611 833.873l-1.131 13.533 7.057-.468z" id="path4178" fill="#fff"/></g></g><g id="g4262"><g id="g4257" transform="translate(135.284 -1.566)"><rect id="rect4136" width="168.75" height="50.578" x="65.689" y="933.022" onclick="fade out up playState" rx="14.39" ry="8.473" fill="#cacaca" stroke="#000" stroke-width="1.635" stroke-linejoin="round"/><text style="line-height:161.00000143%;text-align:center" x="138.597" y="1019.6" id="text4138" transform="scale(1.05065 .9518)" font-weight="400" font-size="40" font-family="Sans" letter-spacing="0" word-spacing="0" text-anchor="middle"><tspan id="tspan4140" x="138.597" y="1019.6">Play&gt;&gt;</tspan></text></g><path id="rect6579" fill="none" d="M87.223 683.682h49.8v50h-49.8z"/></g></g></svg>